<svg id="Layer_1" data-name="Layer 1" xmlns="http://www.w3.org/2000/svg" viewBox="0 0 800 519.29"><defs><style>.cls-1{fill:#d6c78e;}</style></defs><path class="cls-1" d="M772.38,307.5l-7.59-12.7H631.17v61.82H617.8V267H548.55l-44-39h-72.7V192.53h23.38V140.35H269.91v52.18h23.38V228H217.6l-44,39H87.17V396.56h-35V330H0V515.32H52.17V448.73h35V578.31H217.6l91.73,81.34H617.79V568.33h13.38v61.82H764.78l7.59-12.71c2.83-4.73,27.63-49.27,27.63-155S775.2,312.23,772.38,307.5Zm-426.91-115H379.7V228H345.47ZM732.7,578H683.34V516.15H565.62v91.32H329.14L237.4,526.14H139.35v-207h54.09l44-39H484.78l44,39h36.88v89.64H683.34V347H732.7c6,17.79,15.13,54.62,15.13,115.5S738.75,560.18,732.7,578Z" transform="translate(0 -140.35)"/><rect class="cls-1" x="131" y="129.98" width="475.33" height="292"/><rect class="cls-1" x="274.33" y="313.31" width="312.67" height="165.33"/><rect class="cls-1" x="599.67" y="248.65" width="153.33" height="139.33"/><rect class="cls-1" x="655" y="181.31" width="109.33" height="271.33"/></svg>