<?xml version="1.0" standalone="no"?>
<!DOCTYPE svg PUBLIC "-//W3C//DTD SVG 20010904//EN"
 "http://www.w3.org/TR/2001/REC-SVG-20010904/DTD/svg10.dtd">
<svg version="1.0" xmlns="http://www.w3.org/2000/svg"
 width="800.000000pt" height="800.000000pt" viewBox="0 0 800.000000 800.000000"
 preserveAspectRatio="xMidYMid meet">
<metadata>
Created by potrace 1.14, written by Peter Selinger 2001-2017
</metadata>
<g transform="translate(0.000000,800.000000) scale(0.100000,-0.100000)"
fill="#000000" stroke="none">
<path d="M2700 6330 l0 -260 115 0 115 0 0 -180 0 -180 -378 0 -378 0 -219
-195 -220 -194 -432 -1 -433 0 0 -645 0 -645 -175 0 -175 0 0 330 0 330 -260
0 -260 0 0 -925 0 -925 260 0 260 0 0 335 0 335 175 0 175 0 2 -647 3 -648
656 -5 656 -5 454 -402 454 -403 1543 0 1542 0 0 455 0 455 65 0 65 0 0 -305
0 -305 669 0 670 0 35 58 c86 142 148 301 200 514 81 333 124 792 113 1223
-17 657 -121 1169 -298 1461 l-50 84 -670 0 -669 0 0 -305 0 -305 -65 0 -65 0
0 445 0 445 -347 0 -348 1 -218 194 -219 195 -364 0 -364 0 0 180 0 180 115 0
115 0 0 260 0 260 -925 0 -925 0 0 -260z m1100 -440 l0 -180 -172 2 -173 3 -3
178 -2 177 175 0 175 0 0 -180z"/>
</g>
</svg>
